<svg xmlns="http://www.w3.org/2000/svg" width="24" height="24" viewBox="0 0 24 24" fill="none" stroke="currentColor" stroke-width="2" stroke-linecap="round" stroke-linejoin="round" class="lucide lucide-rocket"><path d="M4.5 16.5c-1.5 1.26-2 5-2 5s3.74-.5 5-2c.71-.84.7-2.13-.09-2.91a2.18 2.18 0 0 0-2.91-.09z"/><path d="m12 15-3-3a22 22 0 0 1 3.82-13.04A2 2 0 0 1 15 2a22 22 0 0 1 6.96 11.82 2 2 0 0 1-.18 1.18c-.84 1.76-2.5 3.51-4.78 5-3.3 2.15-6.68 3-9 3-2.32 0-3.3-2.15-3.3-2.15"/><path d="m9 11 3 3"/><path d="m18 3-3 3"/><path d="m15 15 3 3"/></svg>
